# xmcd
#
# Track frame offsets:
#	150
#	13120
#	22762
#	37491
#	48424
#	67645
#	79775
#	94656
#	110028
#	124984
#	137721
#	154653
#	171315
#	182182
#
# Disc length: 2835 seconds
#
# Revision: 1
# Processed by: cddbd v1.5.2PL0 Copyright (c) Steve Scherf et al.
# Submitted via: audiograbber 1.83.01
#
DISCID=ba0b110e
DTITLE=Magic And His Retro-Rockets - Retropolitan
DYEAR=2003
DGENRE=Rockabilly
TTITLE0=Sea Cruise
TTITLE1=Black Magic
TTITLE2=Rockabilly Fool
TTITLE3=(Your) Cheatin'  Heart
TTITLE4=Good Rockin'  Tonight
TTITLE5=Shot Gun Boogie
TTITLE6=Teardrops From My Eyes
TTITLE7=You Are My Sunshine
TTITLE8=Ghost Riders In The Sky
TTITLE9=Six Days On The Road
TTITLE10=It's My Life, Baby
TTITLE11=Cryin'  Over You
TTITLE12=Ooby Dooby
TTITLE13=Tell Me Who
EXTD=
EXTT0=
EXTT1=
EXTT2=
EXTT3=
EXTT4=
EXTT5=
EXTT6=
EXTT7=
EXTT8=
EXTT9=
EXTT10=
EXTT11=
EXTT12=
EXTT13=
PLAYORDER=
